<svg xmlns="http://www.w3.org/2000/svg" xmlns:xlink="http://www.w3.org/1999/xlink" width="800" zoomAndPan="magnify" viewBox="0 0 600 599.999999" height="800" preserveAspectRatio="xMidYMid meet" version="1.0"><path fill="#fefefe" d="M 186.960938 188.527344 L 218.28125 188.527344 L 248.035156 193.226562 L 276.222656 202.625 L 302.84375 216.71875 L 323.203125 232.378906 L 332.597656 243.339844 L 320.070312 255.867188 L 310.675781 249.601562 L 295.015625 237.074219 L 273.089844 224.546875 L 248.035156 215.152344 L 226.109375 210.453125 L 199.488281 208.886719 L 171.300781 212.019531 L 144.679688 219.847656 L 119.625 232.378906 L 103.964844 243.339844 L 88.304688 257.433594 L 72.644531 274.660156 L 60.117188 295.015625 L 50.71875 316.941406 L 44.457031 340.429688 L 42.890625 351.390625 L 42.890625 395.238281 L 47.589844 420.296875 L 56.984375 445.351562 L 67.945312 465.710938 L 83.605469 486.066406 L 97.699219 500.160156 L 119.625 515.820312 L 141.546875 526.78125 L 165.039062 534.613281 L 182.261719 537.746094 L 207.320312 539.3125 L 235.507812 536.179688 L 257.429688 529.914062 L 276.222656 522.085938 L 293.449219 512.6875 L 315.371094 495.464844 L 320.070312 492.332031 L 332.597656 504.859375 L 332.597656 507.992188 L 315.371094 522.085938 L 299.710938 533.046875 L 276.222656 545.574219 L 248.035156 554.972656 L 218.28125 559.667969 L 188.527344 559.667969 L 158.773438 554.972656 L 130.585938 545.574219 L 100.832031 529.914062 L 85.171875 517.386719 L 69.511719 503.292969 L 53.851562 484.5 L 39.757812 461.011719 L 28.796875 434.390625 L 22.53125 409.332031 L 20.964844 398.371094 L 20.964844 349.828125 L 25.664062 324.769531 L 35.058594 298.148438 L 50.71875 268.394531 L 67.945312 246.472656 L 82.039062 232.378906 L 105.53125 215.152344 L 130.585938 202.625 L 152.507812 194.792969 L 174.433594 190.09375 Z M 186.960938 188.527344 " fill-opacity="1" fill-rule="nonzero"/><path fill="#40ccf4" d="M 196.359375 310.675781 L 210.453125 310.675781 L 229.242188 315.375 L 243.335938 324.769531 L 252.734375 337.296875 L 258.996094 354.523438 L 260.5625 362.355469 L 260.5625 387.410156 L 255.863281 404.636719 L 246.46875 420.296875 L 233.941406 431.257812 L 219.847656 437.523438 L 213.582031 439.085938 L 188.527344 439.085938 L 171.300781 432.824219 L 158.773438 423.429688 L 149.378906 410.898438 L 143.113281 392.109375 L 143.113281 359.222656 L 149.378906 340.429688 L 158.773438 327.902344 L 169.734375 318.507812 L 185.394531 312.242188 Z M 196.359375 310.675781 " fill-opacity="1" fill-rule="nonzero"/><path fill="#fefefe" d="M 500.160156 288.753906 L 529.914062 288.753906 L 545.574219 293.449219 L 559.667969 302.847656 L 570.628906 315.375 L 578.457031 331.035156 L 583.15625 351.390625 L 583.15625 381.144531 L 459.445312 381.144531 L 462.574219 404.636719 L 470.40625 424.992188 L 482.933594 439.085938 L 495.460938 445.351562 L 506.421875 448.484375 L 531.480469 448.484375 L 551.835938 442.21875 L 570.628906 431.257812 L 572.195312 431.257812 L 573.761719 448.484375 L 565.929688 456.3125 L 548.707031 464.144531 L 534.609375 467.277344 L 520.515625 468.839844 L 506.421875 468.839844 L 484.5 464.144531 L 468.839844 456.3125 L 453.179688 440.652344 L 442.21875 418.730469 L 437.519531 395.238281 L 437.519531 362.355469 L 442.21875 341.996094 L 453.179688 320.074219 L 467.273438 304.414062 L 482.933594 295.015625 Z M 507.988281 305.980469 L 492.328125 310.675781 L 482.933594 316.941406 L 475.105469 324.769531 L 465.707031 338.863281 L 459.445312 359.222656 L 459.445312 363.921875 L 561.234375 363.921875 L 562.800781 357.65625 L 558.101562 335.730469 L 550.269531 321.636719 L 537.742188 310.675781 L 522.082031 305.980469 Z M 395.238281 288.753906 L 409.332031 288.753906 L 418.726562 291.882812 L 418.726562 313.808594 L 403.066406 309.109375 L 388.972656 310.675781 L 379.578125 315.375 L 371.75 323.203125 L 363.917969 335.730469 L 357.65625 354.523438 L 356.089844 365.484375 L 354.523438 464.144531 L 334.164062 464.144531 L 334.164062 291.882812 L 354.523438 291.882812 L 356.089844 324.769531 L 365.484375 307.542969 L 371.75 299.714844 L 384.277344 291.882812 Z M 324.769531 63.25 L 332.597656 63.25 L 343.558594 77.34375 L 368.617188 114.929688 L 378.011719 127.457031 L 379.578125 63.25 L 385.84375 63.25 L 385.84375 143.117188 L 378.011719 141.550781 L 362.351562 119.625 L 341.996094 89.871094 L 334.164062 78.910156 L 334.164062 75.777344 L 331.03125 75.777344 L 331.03125 143.117188 L 324.769531 143.117188 Z M 130.585938 63.25 L 138.414062 63.25 L 163.472656 129.023438 L 168.167969 143.117188 L 160.339844 143.117188 L 152.507812 124.324219 L 150.945312 121.191406 L 116.492188 119.625 L 111.792969 135.285156 L 108.660156 143.117188 L 100.832031 143.117188 L 105.53125 127.457031 L 129.019531 66.382812 Z M 133.71875 72.644531 L 122.757812 100.832031 L 119.625 113.363281 L 147.8125 113.363281 L 146.246094 103.964844 L 135.285156 72.644531 Z M 244.902344 63.25 L 269.957031 63.25 L 280.921875 66.382812 L 288.75 75.777344 L 290.316406 80.476562 L 290.316406 93.003906 L 285.617188 102.398438 L 277.789062 108.664062 L 269.957031 111.796875 L 251.167969 111.796875 L 251.167969 143.117188 L 244.902344 143.117188 Z M 251.167969 69.515625 L 251.167969 105.53125 L 268.394531 105.53125 L 277.789062 100.832031 L 282.488281 94.570312 L 282.488281 80.476562 L 274.65625 71.078125 L 268.394531 69.515625 Z M 409.332031 63.25 L 446.914062 63.25 L 446.914062 69.515625 L 417.160156 71.078125 L 417.160156 97.703125 L 445.351562 99.269531 L 445.351562 105.53125 L 417.160156 107.097656 L 417.160156 135.285156 L 450.046875 136.851562 L 450.046875 143.117188 L 409.332031 143.117188 Z M 202.621094 61.683594 L 219.847656 63.25 L 221.414062 64.816406 L 221.414062 72.644531 L 210.453125 69.515625 L 196.359375 71.078125 L 190.09375 75.777344 L 188.527344 83.609375 L 193.226562 91.4375 L 207.320312 100.832031 L 219.847656 108.664062 L 224.546875 116.492188 L 224.546875 130.585938 L 216.714844 139.984375 L 210.453125 143.117188 L 186.960938 143.117188 L 180.699219 139.984375 L 180.699219 132.152344 L 196.359375 136.851562 L 208.886719 135.285156 L 215.148438 130.585938 L 216.714844 122.757812 L 212.015625 113.363281 L 188.527344 99.269531 L 180.699219 89.871094 L 180.699219 75.777344 L 188.527344 66.382812 Z M 202.621094 61.683594 " fill-opacity="1" fill-rule="nonzero"/><path fill="#ffffff" d="M 459.445312 63.25 L 512.6875 63.25 L 512.6875 69.515625 L 489.199219 69.515625 L 489.199219 143.117188 L 482.933594 143.117188 L 482.933594 69.515625 L 459.445312 69.515625 Z M 459.445312 63.25 " fill-opacity="1" fill-rule="nonzero"/><path fill="#fefefe" d="M 298.148438 133.71875 L 304.410156 135.285156 L 305.976562 139.984375 L 304.410156 143.117188 L 296.582031 143.117188 L 295.015625 136.851562 Z M 298.148438 133.71875 " fill-opacity="1" fill-rule="nonzero"/></svg>