<svg xmlns="http://www.w3.org/2000/svg" xmlns:xlink="http://www.w3.org/1999/xlink" width="800" zoomAndPan="magnify" viewBox="0 0 600 599.999999" height="800" preserveAspectRatio="xMidYMid meet" version="1.0"><path fill="#fefefe" d="M 227.410156 218.273438 L 247.714844 218.273438 L 267.003906 221.320312 L 285.277344 227.410156 L 302.539062 236.546875 L 315.734375 246.699219 L 321.828125 253.808594 L 313.707031 261.929688 L 307.613281 257.867188 L 297.460938 249.746094 L 283.25 241.625 L 267.003906 235.53125 L 252.792969 232.488281 L 235.53125 231.472656 L 217.257812 233.503906 L 200 238.578125 L 183.757812 246.699219 L 173.605469 253.808594 L 163.453125 262.945312 L 153.300781 274.113281 L 145.175781 287.308594 L 139.085938 301.523438 L 135.023438 316.75 L 134.011719 323.859375 L 134.011719 352.285156 L 137.054688 368.527344 L 143.148438 384.773438 L 150.253906 397.96875 L 160.40625 411.167969 L 169.542969 420.304688 L 183.757812 430.457031 L 197.96875 437.5625 L 213.199219 442.640625 L 224.367188 444.671875 L 240.609375 445.683594 L 258.882812 443.65625 L 273.097656 439.59375 L 285.277344 434.519531 L 296.445312 428.425781 L 310.660156 417.257812 L 313.707031 415.226562 L 321.828125 423.351562 L 321.828125 425.378906 L 310.660156 434.519531 L 300.507812 441.625 L 285.277344 449.746094 L 267.003906 455.835938 L 247.714844 458.882812 L 228.425781 458.882812 L 209.136719 455.835938 L 190.863281 449.746094 L 171.574219 439.59375 L 161.421875 431.472656 L 151.269531 422.335938 L 141.117188 410.152344 L 131.980469 394.925781 L 124.875 377.664062 L 120.8125 361.421875 L 119.796875 354.316406 L 119.796875 322.84375 L 122.84375 306.597656 L 128.933594 289.339844 L 139.085938 270.050781 L 150.253906 255.835938 L 159.390625 246.699219 L 174.621094 235.53125 L 190.863281 227.410156 L 205.074219 222.335938 L 219.289062 219.289062 Z M 227.410156 218.273438 " fill-opacity="1" fill-rule="nonzero"/><path fill="#40ccf4" d="M 233.503906 297.460938 L 242.640625 297.460938 L 254.824219 300.507812 L 263.960938 306.597656 L 270.050781 314.722656 L 274.113281 325.886719 L 275.125 330.964844 L 275.125 347.207031 L 272.082031 358.375 L 265.988281 368.527344 L 257.867188 375.632812 L 248.730469 379.695312 L 244.671875 380.710938 L 228.425781 380.710938 L 217.257812 376.648438 L 209.136719 370.558594 L 203.046875 362.4375 L 198.984375 350.253906 L 198.984375 328.933594 L 203.046875 316.75 L 209.136719 308.628906 L 216.242188 302.539062 L 226.394531 298.476562 Z M 233.503906 297.460938 " fill-opacity="1" fill-rule="nonzero"/><path fill="#fefefe" d="M 430.457031 283.25 L 449.746094 283.25 L 459.898438 286.292969 L 469.035156 292.386719 L 476.140625 300.507812 L 481.21875 310.660156 L 484.265625 323.859375 L 484.265625 343.148438 L 404.0625 343.148438 L 406.089844 358.375 L 411.167969 371.574219 L 419.289062 380.710938 L 427.410156 384.773438 L 434.519531 386.800781 L 450.761719 386.800781 L 463.960938 382.742188 L 476.140625 375.632812 L 477.15625 375.632812 L 478.171875 386.800781 L 473.097656 391.878906 L 461.929688 396.953125 L 452.792969 398.984375 L 443.65625 400 L 434.519531 400 L 420.304688 396.953125 L 410.152344 391.878906 L 400 381.726562 L 392.894531 367.511719 L 389.847656 352.285156 L 389.847656 330.964844 L 392.894531 317.765625 L 400 303.554688 L 409.136719 293.402344 L 419.289062 287.308594 Z M 435.53125 294.417969 L 425.378906 297.460938 L 419.289062 301.523438 L 414.214844 306.597656 L 408.121094 315.734375 L 404.0625 328.933594 L 404.0625 331.980469 L 470.050781 331.980469 L 471.066406 327.917969 L 468.019531 313.707031 L 462.945312 304.570312 L 454.824219 297.460938 L 444.671875 294.417969 Z M 362.4375 283.25 L 371.574219 283.25 L 377.664062 285.277344 L 377.664062 299.492188 L 367.511719 296.445312 L 358.375 297.460938 L 352.285156 300.507812 L 347.207031 305.582031 L 342.132812 313.707031 L 338.070312 325.886719 L 337.054688 332.996094 L 336.039062 396.953125 L 322.84375 396.953125 L 322.84375 285.277344 L 336.039062 285.277344 L 337.054688 306.597656 L 343.148438 295.429688 L 347.207031 290.355469 L 355.328125 285.277344 Z M 316.75 137.054688 L 321.828125 137.054688 L 328.933594 146.191406 L 345.175781 170.558594 L 351.269531 178.679688 L 352.285156 137.054688 L 356.34375 137.054688 L 356.34375 188.832031 L 351.269531 187.816406 L 341.117188 173.605469 L 327.917969 154.316406 L 322.84375 147.207031 L 322.84375 145.175781 L 320.8125 145.175781 L 320.8125 188.832031 L 316.75 188.832031 Z M 190.863281 137.054688 L 195.9375 137.054688 L 212.183594 179.695312 L 215.226562 188.832031 L 210.152344 188.832031 L 205.074219 176.648438 L 204.0625 174.621094 L 181.726562 173.605469 L 178.679688 183.757812 L 176.648438 188.832031 L 171.574219 188.832031 L 174.621094 178.679688 L 189.847656 139.085938 Z M 192.894531 143.148438 L 185.785156 161.421875 L 183.757812 169.542969 L 202.03125 169.542969 L 201.015625 163.453125 L 193.910156 143.148438 Z M 264.976562 137.054688 L 281.21875 137.054688 L 288.324219 139.085938 L 293.402344 145.175781 L 294.417969 148.222656 L 294.417969 156.34375 L 291.371094 162.4375 L 286.292969 166.496094 L 281.21875 168.527344 L 269.035156 168.527344 L 269.035156 188.832031 L 264.976562 188.832031 Z M 269.035156 141.117188 L 269.035156 164.46875 L 280.203125 164.46875 L 286.292969 161.421875 L 289.339844 157.359375 L 289.339844 148.222656 L 284.265625 142.132812 L 280.203125 141.117188 Z M 371.574219 137.054688 L 395.9375 137.054688 L 395.9375 141.117188 L 376.648438 142.132812 L 376.648438 159.390625 L 394.925781 160.40625 L 394.925781 164.46875 L 376.648438 165.480469 L 376.648438 183.757812 L 397.96875 184.773438 L 397.96875 188.832031 L 371.574219 188.832031 Z M 237.5625 136.039062 L 248.730469 137.054688 L 249.746094 138.070312 L 249.746094 143.148438 L 242.640625 141.117188 L 233.503906 142.132812 L 229.441406 145.175781 L 228.425781 150.253906 L 231.472656 155.328125 L 240.609375 161.421875 L 248.730469 166.496094 L 251.777344 171.574219 L 251.777344 180.710938 L 246.699219 186.800781 L 242.640625 188.832031 L 227.410156 188.832031 L 223.351562 186.800781 L 223.351562 181.726562 L 233.503906 184.773438 L 241.625 183.757812 L 245.683594 180.710938 L 246.699219 175.632812 L 243.65625 169.542969 L 228.425781 160.40625 L 223.351562 154.316406 L 223.351562 145.175781 L 228.425781 139.085938 Z M 237.5625 136.039062 " fill-opacity="1" fill-rule="nonzero"/><path fill="#ffffff" d="M 404.0625 137.054688 L 438.578125 137.054688 L 438.578125 141.117188 L 423.351562 141.117188 L 423.351562 188.832031 L 419.289062 188.832031 L 419.289062 141.117188 L 404.0625 141.117188 Z M 404.0625 137.054688 " fill-opacity="1" fill-rule="nonzero"/><path fill="#fefefe" d="M 299.492188 182.742188 L 303.554688 183.757812 L 304.570312 186.800781 L 303.554688 188.832031 L 298.476562 188.832031 L 297.460938 184.773438 Z M 299.492188 182.742188 " fill-opacity="1" fill-rule="nonzero"/></svg>