<svg xmlns="http://www.w3.org/2000/svg" xmlns:xlink="http://www.w3.org/1999/xlink" width="800" zoomAndPan="magnify" viewBox="0 0 600 599.999999" height="800" preserveAspectRatio="xMidYMid meet" version="1.0"><path fill="#dec98e" d="M 544.917969 134.425781 L 562.871094 134.425781 L 562.871094 447.980469 L 561.671875 449.175781 L 544.917969 449.175781 L 543.722656 322.316406 L 541.328125 319.925781 L 407.289062 319.925781 L 406.09375 321.121094 L 404.894531 449.175781 L 386.945312 449.175781 L 385.746094 447.980469 L 385.746094 231.363281 L 389.335938 231.363281 L 402.503906 244.527344 L 404.894531 248.117188 L 406.09375 299.578125 L 542.523438 298.382812 L 543.722656 297.1875 Z M 544.917969 134.425781 " fill-opacity="1" fill-rule="nonzero"/><path fill="#dec98f" d="M 287.613281 39.878906 L 306.761719 39.878906 L 307.957031 42.273438 L 306.761719 566.460938 L 287.613281 566.460938 Z M 287.613281 39.878906 " fill-opacity="1" fill-rule="nonzero"/><path fill="#dfc98e" d="M 53.042969 134.425781 L 70.996094 134.425781 L 72.191406 427.632812 L 73.386719 428.832031 L 82.960938 430.027344 L 217 431.226562 L 222.984375 444.390625 L 222.984375 449.175781 L 54.238281 449.175781 L 53.042969 447.980469 Z M 53.042969 134.425781 " fill-opacity="1" fill-rule="nonzero"/></svg>